<svg xmlns="http://www.w3.org/2000/svg" xmlns:xlink="http://www.w3.org/1999/xlink" preserveAspectRatio="xMidYMid" width="17.991" height="16.945" viewBox="0 0 323 304.219">
  <defs>
    <style>
      .cls-1 {
        fill: #fff;
        fill-rule: evenodd;
      }
    </style>
  </defs>
  <path d="M323.000,0.004 L222.929,108.829 L243.736,108.829 L148.124,195.394 L163.977,195.394 L14.367,304.219 L117.905,197.373 L100.566,197.373 L198.160,109.818 L182.802,109.818 L323.000,0.004 ZM85.705,41.556 L106.511,61.836 L99.576,69.256 L153.574,121.690 L134.749,138.509 L81.741,87.559 L69.852,99.925 L61.430,91.516 L41.119,112.786 L46.073,117.238 L46.073,122.185 L34.183,134.057 L0.001,101.409 L11.395,89.537 L16.844,90.032 L21.303,93.989 L42.110,72.719 L35.669,66.783 L72.329,28.694 C72.329,28.694 122.859,-19.782 163.482,13.855 C163.482,13.855 117.905,-3.953 85.705,41.556 ZM316.064,276.519 L298.725,294.821 L187.261,188.469 L206.086,171.156 L316.064,276.519 Z" class="cls-1"/>
</svg>
