<svg id="Layer_2" data-name="Layer 2" xmlns="http://www.w3.org/2000/svg" viewBox="0 0 423.04 337.32"><defs><style>.cls-1{fill:#262626;}</style></defs><title>reptochka2</title><path class="cls-1" d="M206.06,181.72c-7.13,14.12-24.75,43.19-34.67,43.19-6.25,0-.1-18.87-0.1-18.87,17.82,0,36.83-36.31,33.52-45.6-1.28-3.58-3.32-5.34-5.87-5.69-0.24,0-.47,0-0.71,0l-0.58.07-0.12,0a13.36,13.36,0,0,0-2.9.84l-0.31.13L194,156c-16.29,7.5-38.74,47.52-38.74,66.28,0-24.77,23.41-59.38,38.74-66.28l0.32-.14,0.31-.13a12.78,12.78,0,0,1,2.9-.84l0.12,0,0.58-.07c0.24,0,.48,0,0.71,0-14.56-2-45.59,43-44.3,68.3,0.53,10.49,10.34,16.27,15,15.26,13.68-2.95,34.51-43.91,39.33-56.9ZM194.54,166c7.09-.36-9.6,30.54-20.62,32.75C173.93,198.78,189.55,166.29,194.54,166Z" transform="translate(-45.5 -82.16)"/><path class="cls-1" d="M285.88,142.2c-6.5-3.07-21.76,3.3-21.76,3.3,15.77-7.4,21.35-5,23.31-2.65,4.33-28.48-26.65-7.39-36-.45-0.1.08-8.78,6.71-12,10.43,1.91-2.65,8.54-8.62,5.36-8.92-11.64-.4-20.21,8.22-20.36,11.59-0.19,4.27-.32,10.2,6.5,10s21.5-21,21.5-7.25-16.25,50-16.25,53.25,10.1,10.53,11.25,5.4c8.7-38.65,25.42-67.18,16.75-70.4C277,140.59,283.28,141.28,285.88,142.2Zm-29,17.14c0.93-7.52-3.57-7.75-3.57-7.75C265.63,144.65,256.91,159.33,256.91,159.33Zm-10,57c1.33-17.85,10.47-35.7,16.92-54.6C256.09,184.94,251.5,196.54,246.92,216.35Z" transform="translate(-45.5 -82.16)"/><path class="cls-1" d="M381.55,92.55c-9,.79-18.06,9.74-26.39,22-27-4.55-60.9-32.4-101-32.4-53.56,0-55.48,55-36.86,63.34,1.6-9.08,8.61-22.54,20.58-32.81a62.78,62.78,0,0,0-15.17,16.43s6.89-19.26,34.11-27.57a58.22,58.22,0,0,1,19-3.44q2.34-.18,4.81-0.25c2.28-.11,3.61-0.06,3.61-0.06-1.23,0-2.43,0-3.61.06-0.95,0-2.06.12-3.31,0.24,34.33,0.18,55.05,17.34,74.5,21.67l-0.14.23a63.25,63.25,0,0,0,6.8.76,8.18,8.18,0,0,1,1,0c-0.29,0-.62,0-1,0A13.81,13.81,0,0,0,347.58,127q-0.88,1.58-1.75,3.2a12.25,12.25,0,0,1-1,1.91c-13.64,26.06-23.32,56.25-23.32,61.15,0,8.63,6.47,14.38,9.64,14.38,2.61,0-.14-8.7,10.13-36.06-2.91,11.83,1.76,26.59,10.76,27.24-6.4-.64-13.73-11.12-10.1-28.28-1.69,14.16,4.06,28.31,10.72,28.31,13.29,0,27-24.92,29.92-36,0.78-3-5,2.74-6.9,2.74-8,15.08-15,21.65-19,21.65-6.75,0-7.51-11.82-5.57-17.67,18-1.29,29.15-17.47,29.88-28.61-0.79,9.63-12.85,31.92-38.55,27.72a37.31,37.31,0,0,0,18.54-3c1-.44,3.14,1,2.8-1.41,11.29-6.34,17-17.74,17.24-24.09,0.12-5.57-2.5-9.7-8.34-9.7-11.41,0-19.89,13.75-24.42,23.33a293.49,293.49,0,0,1,16.13-33.32C393.87,117.07,395.77,91.29,381.55,92.55Zm1.85,9.54c0.34,3.87-7.4,10.6-15.46,12.52C377.86,99.4,383.16,99.41,383.4,102.09Zm-11.18,37.1c1.34,6.36-11.05,22.21-19.57,23.63C361.31,141.3,371.64,136.46,372.22,139.19Z" transform="translate(-45.5 -82.16)"/><path class="cls-1" d="M412.48,153.31c0.63-5.65-.75-16.54-10.46-16.74-20.88-.43-44.09,62.32-22.31,62.32,12.63,0,28-42,29.36-41.84-11,31.92-3.87,44.06,5.11,42.83l-0.37,0c-12.74-.38-10-19.21-9.12-23.29a43,43,0,0,0,.52,13.48c-1.89,2,.75,2.65,1.22,3.7,2.2,4.87,5.65,6,7.38,6.11l0.37,0c5.69-.78,12.11-6.93,15.08-16.83C408,190.85,425,152.76,412.48,153.31ZM401.13,148a4,4,0,0,1,.53,0c-0.18,0-.36,0-0.53,0-2.67.36-6.25,3.41-10.36,10.33-1.71-1.88-1,1.84-1.57,2.85A85.56,85.56,0,0,0,382,182.9C382.31,175.06,389.59,148.84,401.13,148Zm-18,39.18c-5.14-.11,14.52-55,23.65-34.71C400.64,158.67,390.33,187.37,383.16,187.22Z" transform="translate(-45.5 -82.16)"/><path class="cls-1" d="M449,244.64a5.51,5.51,0,0,0-1.45-5.14c-1.53,17.05-10.8,34.41-20.57,34.41C439.19,273.91,446.49,259,449,244.64Zm-20.85-39.4a1,1,0,0,0,.21,1.94c15.57,2.3,20.38,16.74,19.24,31.6,0.41,0.08,1.08.26,2.12,0.56,0.74-7.69,0-14.59-2.09-18.09,10.5,11.08,3.72,52.66-20.66,52.66-21.7,0-2.51-62.43-17.26-59.41,0,0-1-14.62-7.5-14.81-7.08,0-19.28,16.24-29,35.22,5.47-16.6,17.81-31.34,25.65-34.58-12.07,4.46-31.64,31.65-31.64,59.33,0,7.46,8,13,11.25,13,11.61,0,21.36-26.83,25.58-41.45-6.86,27,7,48.28,22.93,48.28C474.84,279.5,489,181.27,428.18,205.24Zm-46.93,54.51c-9,.16,21.08-67.92,24.64-43C401.31,220,386.26,259.66,381.25,259.75Z" transform="translate(-45.5 -82.16)"/><path class="cls-1" d="M382,275.71a0.94,0.94,0,0,0-1.78,0c-5.44,16-17.2,17.69-28.18,17.1,10.87,1.17,18.54,1.5,25.26-9.9-9.55,19.28-23.49,8.79-40.32,8.79-9.25.13-15.81,3.4-14.38,15.28-18.45,4.8-36.55,66.51-12.7,66.51,18.85,0,31.29-50.23,22-66.51-1.45-.93-2-7.64,4.29-7.64,18.59,0,24.44,10.32,36.16,10.32C385,309.67,388.67,295.44,382,275.71Zm-56.29,40.4c5.2,6.08-5.63,45.86-13.77,45.86C306.61,362,315,325.71,325.69,316.1Zm9.17,2.43c0.73,21.17-9.85,53.81-23.72,53.81C323.59,372.34,334.86,336.48,334.86,318.54Z" transform="translate(-45.5 -82.16)"/><path class="cls-1" d="M141.52,136.48c-40.64,0-96,39.64-96,79.87,0,23.32,22.5,39.19,42.9,21.7-21.75-3.28-21-33.79-4.94-59.21-1.69,1.21-3.81,3.59-6.29,8.09a60.69,60.69,0,0,0-6.84,24c3.44-41.26,34.24-63.55,64.29-66.69l0.72-.08,0.74-.06q1.32-.12,2.66-0.18h0.18c0.83,0,1.67-.06,2.51-0.06h0.09c0.69,0,1.38,0,2.09,0,36.4,1.17,10,53.68-18.61,52.76l-3.33,8C168.83,209.5,191.55,138,141.52,136.48ZM84.44,174.91c0.31,0.43.59,0.8,0.86,1.14a79.49,79.49,0,0,1,23.06-22.45A79.6,79.6,0,0,0,84.44,174.91Z" transform="translate(-45.5 -82.16)"/><path class="cls-1" d="M152.74,159.85c-11.76-27.39-86.07,89.26-32.89,91C105.47,199.57,152.74,159.85,152.74,159.85Zm-36,73.55c-3.51-26.57,12.05-45.9,12.05-45.9C117.14,208.23,116.5,226.17,116.78,233.4Z" transform="translate(-45.5 -82.16)"/><path class="cls-1" d="M251.25,166.59c-5,21-22.5,47.38-25.5,47.38-4.08,0,12.19-29.93,12.25-35.64a8,8,0,0,0-.07-1.13c0,6.19-5.37,13.8-12.42,31.76a64.74,64.74,0,0,1,3.78-10.67c0.49-1.13,2.22-1.48,1.51-3.37,3.45-7.5,7.13-14.53,7.14-17.73-0.65-4.9-5.85-5.45-8.18-5.45-4,0-19.16,28.14-28.25,44.5,3.06-9,8.31-19,12.8-27.87,1.61-3-.71-2.78-4.14-1.38-0.39.19-.78,0.36-1.16,0.5l1.16-.5c4.5-2.13,9.62-7.36,12.09-17.43,0.74-3.79-.16-6.07-3.75-6.07s-29.39,47.43-29.39,55.18S194,230,197.25,230s18.33-31.5,30.44-49.75c-7,11.36-21.63,39.75-4.19,44,8.26,2,30.34-48.24,32.59-60.72C256.09,163.5,251.59,165.13,251.25,166.59Z" transform="translate(-45.5 -82.16)"/><path class="cls-1" d="M277.29,205.61c4.2-6.09-5.33-5.18-7.63-4.89l-0.49.07,0.49-.07c6.42-.91,12-5.22,15.26-8.25,6.58-15.81,9.37-35.64-.75-34.84-4.24.34-8.33,3.7-11.51,7.24-5.67,3.2-14,25-13.45,31.61,0.59,7.48,4,15,10.47,15,2.41,0,5-2,7.58-5.22C277.26,206,277.27,205.84,277.29,205.61Zm5.65-41.86c5.48-.44-5.1,24.11-10.93,29.71-1.08-11.76,7.63-21.52,7.51-26.13C280.73,165.26,281.92,163.83,282.94,163.75Z" transform="translate(-45.5 -82.16)"/><path class="cls-1" d="M180.3,268.32c-5,14.51-11.51,29.07-16.18,29.07a0.84,0.84,0,0,1-.21,0l0.07,0c-6.18-.16,5.43-32.26,8.79-42l0.85-2.62c-0.08.34-.39,1.27-0.85,2.62-2.7,8.34-4.68,15-6.11,20.41l0.77,0.21c1.91-6.66,4.37-14.78,7.22-24.27,1.54-5.11-6.74-8-14.21-3.67-1.73,1-20,51.67-20,51.67,2-7.18,4.07-13.95,6-20.13-3.21,9.9-6.24,18.06-6.56,18.57,12.86-42.28,14.31-50.34,13.31-55.16,2.91,1.52-.13,14.73-4,27.85,4.27-13.72,7.16-23.4,6-26.46-1.5-3.84-5-4.33-9.67-4.33-3.66,0-10,26.35-31.76,67.38,7.36-14.09,36.74-74,4.09-74-49.26,0-85.41,107.48-24.45,92.07-5.26,9.47-9.5,16-10.89,16.59-6,2.67,7.58,17.38,15,12.33,12.52-8.52,39.48-86.12,43-92.33-12.78,38.93-14.33,38.39-14.33,50.67,0,7,2.83,11.58,9.2,11.58,4.26,0,23.3-64.38,27.8-69.25-7.48,18.07-13.64,41.19-13.64,49,0,5.28,5.33,9.67,9.67,9.67,11.88,0,16.73-18.29,23.58-42.54ZM83.52,342a273.31,273.31,0,0,0,28.77-51.56,8.53,8.53,0,0,0,.5-5.17,415.06,415.06,0,0,1-18.06,37.67c-14.54-9.63-11.31-51.75,3.35-72.68C89.65,261.55,83.83,280,83.83,302c-2.41-28.64,9.26-54.51,25-61.64a18.1,18.1,0,0,1,8.15-2l0.36,0h0c11,0.48,5.58,22-4,45.4l1.08,1.26a163.69,163.69,0,0,0,9.05-30.78q0.48-3.06.83-6.13c-0.17,1.89-.45,3.94-0.83,6.13C118.53,286.23,103,316.58,83.52,342Zm82.32-63c-2,7.81-2.6,12.32-2.68,14.92,0.33-3.28,1.7-8.83,3.86-16.46A2.51,2.51,0,0,0,165.84,279Z" transform="translate(-45.5 -82.16)"/><path class="cls-1" d="M210.09,233h0Zm2.16,0.13h0Zm26.81,6.48c-6.74,22.64-16,40.32-19.3,40.32-6,0,5.12-33.43,5.12-33.43-6.74,23.66-6.19,30.66-5.54,32.66-0.66-4,2.58-23.05,8.05-36.57,0.6-1.49-3.51-3.2-7.75-2.87-0.94-3.27-2.62-6-7.37-6.59-3.69-.08-9.72,3.74-15.89,11.5-2-2.62-2.11,2.76-3.16,4.31a96.2,96.2,0,0,0-10.49,21c2.49-13.06,15.63-36,27.2-36.94-13.34.25-34.63,33.11-34.63,60.59,0,5.5,5.29,10.67,10.79,10.67,7.59,0,16.88-20.72,22.65-36.66a70.28,70.28,0,0,0-1.8,14.83c0,4.17,3.15,10.83,10,10.83,13.48,0,28.23-63.25,28.23-63.25Zm-48,50.74c-5.24,0,8.73-43.32,22.84-47.47C208.35,254.31,193.54,290.33,191,290.33Z" transform="translate(-45.5 -82.16)"/><path class="cls-1" d="M295.66,229c-10.43,29-22.5,44.47-27,44.47a0.7,0.7,0,0,1-.22,0c-5.86-.7,4-28.84,8.55-40.1-3.21,10.89-12.6,38.94-8.59,40.08-4-1.64,12.06-44.22,10.75-48.87-1.42-5-6.82-5.9-9.47-5.9-8,0-26.41,47.62-26.41,47.62s10.21-33.45,10.21-36.82-9.13-6.17-10.64-2c-5,13.86-15.52,51.81-15.52,52.67,0,6,4.41,14.24,9.27,14.24,5.2,0,11.34-27.92,31.9-65.92-9.22,20.78-14.15,36.54-13.12,45.25,0.62,5.24,6.3,11,11.75,11,9.88,0,32.43-44.07,34.7-58.41Z" transform="translate(-45.5 -82.16)"/><path class="cls-1" d="M373.61,233.4s-14,33.34-20,33.34c-4.5,0,11-26.69,11.43-37.93,0.31-7.36-8.11-13.85-14-17.46a33.74,33.74,0,0,0,.34-4.36c0-12.07-21.78-8.4-14.48,4.49,1.4,2.47,4,3.82,6.73,5-8.45,31.75-27.65,63-35.73,63,15,0,34.4-53.52,35.88-60.82-0.61,5.37-3.21,14.1-7,23.3-2.53-1.7-1.33,3.42-3.63,8.25-7.2,15.18-16.87,29.28-25.28,29.28-4.61,0-4-11.23-1.1-23,7.94-1.36,15.87-8.76,20.63-17.08a3.28,3.28,0,0,0-1.65,1.34c-5,7.79-12.24,13.44-16.69,13.74,11-3.08,22-21.51,22-31.27a29.12,29.12,0,0,1-3,13.27c0.19,0.27.34,0.51,0.47,0.72a28.49,28.49,0,0,0,3.3-12.22c0-16-18.11-11.55-29.94,17.36,4.3-12.42,7.13-20.11,11.82-28.91-2.83-3.18-9.15-6.62-15.81,9.72-12.29,30.16-23.66,67.88-24.08,78.06-0.53,12.64,11.42,8.43,11.42,8.43-1.29-17,8.66-45.47,10-48.29a218.43,218.43,0,0,0-10,48.15,396.24,396.24,0,0,1,9.6-45.79c-1.8,11.31-.12,26.93,11.62,26.93,16.73,0,36.81-45.69,42.94-71.38a10.29,10.29,0,0,1,5.44,8.88h0v0c0,0.31,0,.63,0,1a12.07,12.07,0,0,1-.28,2.5C353,244.06,342.38,251.09,341,261.38c0-11,10.2-17.73,13.16-27.79-3.24,9.18-14.91,18.27-14.91,29.41,0,7.75,5,19.33,11.85,19.33,12.15,0,24.15-45,24.15-45ZM321,230c4.13,0-2.3,14-11.87,18.49C312.48,238.52,317.07,230,321,230Zm23.49-27.17c1.9,0,1.08,5.5,1.08,5.5C342.31,206.83,342.63,202.83,344.5,202.83Z" transform="translate(-45.5 -82.16)"/><path class="cls-1" d="M207.15,372.19a11,11,0,0,0-.58-5.65,77.26,77.26,0,0,0-.64,9.81c0,7.78,2.3,13,6.06,15.69C208.13,388.61,206.61,381.3,207.15,372.19Zm56.56-49.75c-2.38,23.68-27,57.11-38.27,57.11-7.23,0-6.35-20.87,11.76-48.71,4-6.88-3.79-5.84-3.79-5.84l9.4-1.73c9.14-2.18,15.6-5.92,15.6-14.76,0-13.7-16.68-6.68-31.23,11.23-26.65.59-64.39-3.8-64.39,27.67,0,12,10.48,17.86,20.22,17.86-1-17.5,5.72-26.71,15.47-32a6.06,6.06,0,0,0-3.53,1.15,28,28,0,0,0-12.37,24.4q0.06,0.72.16,1.47a11.2,11.2,0,0,1-.16-1.47c-2.71-30.94,33.86-33.28,41.1-33.08-10,.71-17.56,2.76-23.31,5.52,0,0.43,0,.76,0,1,6.5-3,14.12-4.58,21.68-5.73a93.84,93.84,0,0,0-15.39,39,9.85,9.85,0,0,1,1.17-.06,105.09,105.09,0,0,1,7.66-25.89c-9.23,23.3-8.82,49.71-.28,53.88,13.92,3.93,39.89-18,52.55-69.47Zm-10.89-12.94c-0.53,3.33-2.55,5.57-5.66,7.1A69.77,69.77,0,0,1,252.82,309.51Z" transform="translate(-45.5 -82.16)"/><path class="cls-1" d="M301.82,337.2c-10.44,26.9-15.75,30.09-15.75,30.09,2.63-12.07,5.21-21.37,7.57-28.76-0.26.07-.54,0.15-0.88,0.22-4.15,12.57-7.15,23.3-7.76,27.39,2.88-24,16.82-52.48,16.82-52.48-2.84,7.16-5.56,14.71-8,21.81a1,1,0,0,0,.47.93c5.51-16.79,9.56-23.14,9.56-30.73,0-5.62-9-7.7-11.93-4.52-5.27,5.67-31.32,73.38-31.32,73.38,6.6-18.1,10.33-30.7,12.18-39.4a2.88,2.88,0,0,0-.86,1.2c-3.2,14-9.5,31.27-10.62,32.65,7.31-18.11,12.82-42.2,12.17-48.25,0.63,2.4.24,6.59-.7,11.54a4.49,4.49,0,0,1,.52.26C278,307,264,320.72,264,320.72c-3.33,23.53-16.1,52.36-17.66,57-2,5.8,7.92,11.27,11.32,11.27,5.59,0,14.07-38.17,36.7-81.93,0,0-19.36,45.41-19.36,57.58,0,4.88,2.87,15.79,8.65,15.79,13.45,0,22.68-46.86,22.68-46.86Z" transform="translate(-45.5 -82.16)"/><path class="cls-1" d="M238.46,418.42a51.3,51.3,0,0,1-8.89.84C231.43,419.76,234.49,419.38,238.46,418.42Zm78.73-38.7c-19.27,0-66.23,26.21-66.23,26.21s1.15-5.77-4.13-5.77-19.29,11.44-19.29,16.62a2.39,2.39,0,0,0,2,2.48c16.9,0,47.4-21.45,88.46-21.45-19.66,0-36.67,6.25-52.06,12,21.61-7,47.39-14.07,63.43-7.34C329.41,402.47,336.44,379.73,317.18,379.72Z" transform="translate(-45.5 -82.16)"/><path class="cls-1" d="M297.83,186.5c6.67,0,12.51-9.32,19.89-24-5.47,8-24.58,44.83-7.15,44.83,11,0,22.12-36.79,22.12-36.79l-7.49,8.68s-7.09,19.19-11.07,18.8c-5.09-.51,8.64-38.81,10.52-43.49,0,0-2.62-4.54-5.45-2.22s-11.36,24.63-16.78,24.63c-2.63,0,2.83-18.66,5.83-24.08C299.5,143.88,287.52,186.5,297.83,186.5Z" transform="translate(-45.5 -82.16)"/><path class="cls-1" d="M277.7,197.83c15.44-8.41,30.88-33.33,30.88-45,0-10.5-11.58,3.79-14.09,19.56-0.47,2.57-5.12,12.27-16,17Z" transform="translate(-45.5 -82.16)"/></svg>